OpenSim_Sub04_EMGStiffKnee_GRF.mot
version=1
nRows=63
nColumns=19
inDegrees=no
endheader
time	lFx	lFy	lFz	lCOPx	lCOPy	lCOPz	rFx	rFy	rFz	rCOPx	rCOPy	rCOPz	lMx	lMy	lMz	rMx	rMy	rMz
41.38000000	2.98573010	0.28488639	-8.05319479	0.00088434	0	-0.00076359	9.02588170	666.67849163	-46.40188924	0.67369981	0	-0.42795553	0	-0.00526446	0	0	3.34845086	0.00000000
41.39000000	3.15800807	0.42766419	-7.93682950	-0.00020366	0	0.00004024	12.04293438	666.52291075	-46.00150613	0.66757634	0	-0.42814125	0	0.00618909	0	0	3.49625601	0.00000000
41.40000000	3.06277854	0.86403584	-7.73907362	-0.00397626	0	0.00301854	15.71592306	663.62088076	-45.81736980	0.66113640	0	-0.42837154	0	0.03889378	0	0	3.57619033	0
41.41000000	2.53645128	1.70410896	-7.49004887	-0.01139058	0	0.00908073	20.05013886	657.90703117	-45.68139434	0.65454197	0	-0.42860326	0	0.09550245	0	0	3.60333540	0
41.42000000	1.48643525	2.89013618	-7.21261575	-0.01976472	0	0.01633075	24.95958834	649.74088148	-45.48868052	0.64809842	0	-0.42883508	0	0.14464831	0	0	3.61297190	0
41.43000000	-0.30738021	4.42391699	-6.87107437	-0.01726585	0	0.01552048	30.39480514	639.49742735	-45.06582768	0.64215197	0	-0.42903941	0	0.08032539	0	0	3.59030708	-0.00000000
41.44000000	-3.22372287	7.12716160	-6.38764939	0.02213159	0	-0.01444923	36.19356545	627.03126808	-44.24920935	0.63640119	0	-0.42926932	0	-0.30278485	0	0	3.60322567	0
41.45000000	-7.64538201	13.88579707	-5.45702344	0.13316757	0	-0.10305003	42.19659536	612.07671793	-42.85121693	0.63065186	0	-0.42955710	0	-1.23076166	0	0	3.65518794	-0.00000000
41.46000000	-13.28797921	30.25396615	-3.61084952	0.32346754	0	-0.26045743	48.22695267	593.97219286	-40.61601674	0.62473926	0	-0.42986278	0	-2.61700466	0	0	3.63781693	-0.00000000
41.47000000	-18.35746939	63.17529840	-0.60713214	0.52656898	0	-0.43600249	54.04909872	571.64798358	-37.48038279	0.61863899	0	-0.43011124	0	-3.68496147	0	0	3.54056707	0
41.48000000	-19.90228174	116.03439069	3.29526467	0.67583844	0	-0.56553625	59.33379118	543.69935341	-33.56566161	0.61244465	0	-0.43026487	0	-3.69584011	0	0	3.41036347	0.00000000
41.49000000	-17.65056446	183.48164347	6.94590289	0.74945994	0	-0.62775641	63.70004559	508.40884151	-29.04238649	0.60609241	0	-0.43036137	0	-2.45868131	0	0	3.25778298	-0.00000000
41.50000000	-14.77059176	257.12795492	10.73247025	0.76858577	0	-0.64392328	66.42295639	464.77148481	-24.21070711	0.60041094	0	-0.43061424	0	-0.60883734	0	0	3.11011808	0.00000000
41.51000000	-14.07412932	330.89654510	16.33771892	0.76280447	0	-0.64054936	66.52078724	412.78193119	-19.15888082	0.59656565	0	-0.43155926	0	0.62851945	0	0	2.91946546	0
41.52000000	-14.74564192	401.21518058	22.44411427	0.75185302	0	-0.63387196	63.16338297	353.84892272	-13.99929621	0.59592340	0	-0.43408038	0	1.53270738	0	0	2.58643998	0.00000000
41.53000000	-15.67972502	466.65262786	28.57384680	0.74319243	0	-0.62969495	56.04879829	290.63985147	-9.24012048	0.59944740	0	-0.43906209	0	2.26091936	0	0	2.12542597	0
41.54000000	-16.22654991	526.95951019	35.29591306	0.73721887	0	-0.62834486	45.49107188	226.86669881	-5.45549775	0.60558465	0	-0.44551547	0	2.67853053	0	0	1.57513858	0.00000000
41.55000000	-15.69246666	581.48557887	42.83688166	0.73238147	0	-0.62871230	32.58886841	166.87449882	-3.03530758	0.60599559	0	-0.44737017	0	2.68730700	0	0	1.01286760	0
41.56000000	-13.82509131	629.18093718	50.93914898	0.72762177	0	-0.62978470	18.97816902	114.51898092	-1.99858101	0.58023372	0	-0.42966528	0	2.21608883	0	0	0.59149037	0
41.57000000	-10.85988335	668.95920841	58.78484562	0.72285211	0	-0.63095109	6.35913792	72.24869275	-1.92395577	0.49733304	0	-0.36889386	0	1.39035653	0	0	0.34290929	0
41.58000000	-7.42123387	699.89843918	65.39681863	0.71828097	0	-0.63189449	-3.22070613	41.04388677	-2.11354077	0.33853753	0	-0.25026147	0	0.50209970	0	0	0.21688426	0
41.59000000	-4.34501949	721.70203012	70.15176991	0.71400621	0	-0.63246042	-7.32667098	19.62856509	-1.87561154	0.15443402	0	-0.11341182	0	-0.27838565	0	0	0.12000202	-0.00000000
41.60000000	-1.50393627	734.23202771	72.61533900	0.70931091	0	-0.63256246	-5.82183969	6.23398629	-1.05876916	0.03532858	0	-0.02551005	0	-0.81265380	0	0	0.03973631	0.00000000
41.61000000	1.41401666	738.35067243	72.77032295	0.70413144	0	-0.63228629	-2.79355306	-0.05564667	-0.29012213	-0.01222843	0	0.00933048	0	-0.96651674	0	0	0.00040769	-0.00000000
41.62000000	4.21995702	735.55923612	71.29824853	0.69875261	0	-0.63177902	-0.71990270	-1.60050675	-0.15130849	-0.01918142	0	0.01425433	0	-0.79417220	0	0	-0.01015044	0.00000000
41.63000000	6.82036908	727.34528402	69.11112425	0.69341439	0	-0.63118319	0.15584276	-1.14696385	-0.08606291	-0.01224851	0	0.00903814	0	-0.51147222	0	0	-0.00829575	-0.00000000
41.64000000	9.19311021	715.38762720	66.83899046	0.68811240	0	-0.63061751	0.32613739	-0.33508775	-0.03828113	-0.00482217	0	0.00353178	0	-0.29237457	0	0	-0.00401519	0.00000000
41.65000000	11.38260235	701.29046992	64.78180741	0.68279939	0	-0.63015455	0.26186971	0.19100703	-0.13100401	-0.00065979	0	0.00046549	0	-0.13909474	0	0	-0.00105124	-0.00000000
41.66000000	13.24492398	686.23460421	63.06617474	0.67759421	0	-0.62983013	0.16306168	0.38037492	-0.18520408	0.00073947	0	-0.00055590	0	-0.07845495	0	0	0.00021087	0.00000000
41.67000000	14.74590066	671.14184713	61.64208925	0.67256747	0	-0.62964526	0.09965740	0.40578320	-0.18679578	0.00077052	0	-0.00057120	0	-0.13551535	0	0	0.00044734	0.00000000
41.68000000	16.03438803	657.06286969	60.49293797	0.66764506	0	-0.62954604	0.06486448	0.38892266	-0.13687452	0.00042656	0	-0.00031418	0	-0.28919966	0	0	0.00030525	-0.00000000
41.69000000	17.15673320	645.04305678	59.66943196	0.66266203	0	-0.62949837	0.04028554	0.37824935	-0.07098493	0.00014089	0	-0.00010280	0	-0.51081920	0	0	0.00012827	-0.00000000
41.70000000	17.98838845	635.75200879	59.12360296	0.65767672	0	-0.62947875	0.00915857	0.42181920	-0.08140583	0.00000113	0	-0.00000006	0	-0.72532971	0	0	0.00002299	0.00000000
41.71000000	18.35243402	629.23915986	58.72988833	0.65276083	0	-0.62946813	0.00694193	0.55345378	-0.13377388	-0.00003630	0	0.00002709	0	-0.91086159	0	0	-0.00001525	-0.00000000
41.72000000	18.36911606	624.99655837	58.30714773	0.64781220	0	-0.62946234	0.02020565	0.69806107	-0.15304128	-0.00002963	0	0.00002189	0	-1.08990324	0	0	-0.00001831	-0.00000000
41.73000000	18.35253032	622.46641941	57.76575106	0.64266829	0	-0.62948036	0.01255842	0.77418542	-0.13882565	-0.00001430	0	0.00001050	0	-1.25143760	0	0	-0.00001073	0.00000000
41.74000000	18.58329372	621.03640437	57.05511278	0.63737537	0	-0.62953703	0.01268072	0.78142921	-0.17251847	-0.00000340	0	0.00000255	0	-1.36158370	0	0	-0.00000394	-0.00000000
41.75000000	19.09621981	620.09189292	56.26818991	0.63202841	0	-0.62961158	0.01510917	0.72915492	-0.21521561	0.00000186	0	-0.00000109	0	-1.48700251	0	0	-0.00000081	-0.00000000
41.76000000	19.86415891	619.08923786	55.48840336	0.62644565	0	-0.62963680	0.01665498	0.61845022	-0.21257276	0.00000376	0	-0.00000218	0	-1.63078961	0	0	-0.00000056	-0.00000000
41.77000000	20.93654396	617.95942842	54.70284254	0.62047960	0	-0.62957807	-0.01979353	0.53169400	-0.20378764	0.00000352	0	-0.00000192	0	-1.73922846	0	0	-0.00000141	-0.00000000
41.78000000	22.28006367	617.09654965	53.90344460	0.61395952	0	-0.62939435	-0.07495015	0.48003148	-0.18675882	-0.00000031	0	0.00000000	0	-1.81586042	0	0	-0.00000096	0.00000000
41.79000000	23.79755638	617.14792780	53.08609780	0.60709686	0	-0.62910142	-0.10721688	0.50858908	-0.16224898	-0.00001147	0	0.00000521	0	-1.85318538	0	0	0.00000410	-0.00000000
41.80000000	25.37822602	618.69516601	52.30387808	0.60012624	0	-0.62874619	-0.10721482	0.56672203	-0.15418399	-0.00003249	0	0.00001489	0	-1.86863515	0	0	0.00001725	0.00000000
41.81000000	27.16281240	621.79837796	51.58478127	0.59306665	0	-0.62836678	-0.08042230	0.63803879	-0.16150185	-0.00005550	0	0.00002548	0	-1.88126387	0	0	0.00003762	0.00000000
41.82000000	29.26599566	626.02550745	50.99842467	0.58595985	0	-0.62799801	-0.04868823	0.68168810	-0.17313321	-0.00004660	0	0.00002153	0	-1.88976437	0	0	0.00004973	0.00000000
41.83000000	31.65026707	630.70596846	50.59081607	0.57899078	0	-0.62769188	-0.03086935	0.69302135	-0.19427504	0.00006775	0	-0.00003067	0	-1.88297743	0	0	0.00000939	0.00000000
41.84000000	34.10428007	635.19888689	50.45036180	0.57244499	0	-0.62748764	-0.03692735	0.73480870	-0.20692386	0.00038386	0	-0.00017538	0	-1.87102004	0	0	-0.00015991	0.00000000
41.85000000	36.40933686	638.85853230	50.61929903	0.56636744	0	-0.62740578	-0.01592464	0.81196312	-0.18506101	0.00091720	0	-0.00042011	0	-1.88543797	0	0	-0.00052477	-0.00000000
41.86000000	38.57068556	641.09756201	51.00496168	0.56047682	0	-0.62741727	0.06915146	0.82271258	-0.18355544	0.00135004	0	-0.00062003	0	-1.94201592	0	0	-0.00099886	0.00000000
41.87000000	40.64599492	641.68612950	51.49457900	0.55469299	0	-0.62747371	0.22610309	0.66608494	-0.15728132	0.00065169	0	-0.00030360	0	-2.04584575	0	0	-0.00106549	0.00000000
41.88000000	42.60051639	640.56957763	51.91909640	0.54916982	0	-0.62752756	0.42728924	0.27297178	-0.09579815	-0.00312577	0	0.00142241	0	-2.12856365	0	0	0.00052838	-0.00000000
41.89000000	44.24321103	637.50832403	52.14544898	0.54379130	0	-0.62753083	0.44317176	-0.42535827	-0.10091758	-0.01203242	0	0.00550216	0	-2.16235740	0	0	0.00565643	0.00000000
41.90000000	45.53475141	632.14246053	52.11967796	0.53833472	0	-0.62747046	-0.34724237	-1.18518401	-0.25708852	-0.02495296	0	0.01143674	0	-2.18791616	0	0	0.01529870	0
41.91000000	46.54478795	624.21171070	51.84478576	0.53278321	0	-0.62740200	-2.92984697	-1.10185566	-0.66376196	-0.03070217	0	0.01411988	0	-2.26108431	0	0	0.02534812	-0.00000000
41.92000000	47.41850032	613.56292317	51.29369831	0.52724633	0	-0.62737990	-7.87894484	1.88290124	-1.48684146	0.00070491	0	-0.00017597	0	-2.37741420	0	0	0.01952557	-0.00000000
41.93000000	48.18807273	600.27956995	50.42830320	0.52183913	0	-0.62743377	-14.27703380	12.30912314	-2.50766664	0.11857522	0	-0.05407919	0	-2.52102848	0	0	-0.03639100	-0.00000000
41.94000000	48.83335694	584.47404592	49.17256711	0.51624670	0	-0.62754773	-19.00841399	37.91260584	-2.64207711	0.36003238	0	-0.16475355	0	-2.67300604	0	0	-0.18535372	0
41.95000000	49.35654877	566.29836238	47.38662239	0.51028111	0	-0.62772066	-17.05931737	87.19562131	-0.82536367	0.65766849	0	-0.30165392	0	-2.73802152	0	0	-0.43797880	0
41.96000000	49.49598875	545.97757046	45.07789436	0.50388007	0	-0.62788777	-7.11639862	161.29910873	2.24895331	0.85963712	0	-0.39484546	0	-2.67408981	0	0	-0.76513719	0
41.97000000	48.84804183	523.86877767	42.22098310	0.49752826	0	-0.62799923	1.75074572	246.36605482	3.43015059	0.94103045	0	-0.43356651	0	-2.49122844	0	0	-1.06083858	0
41.98000000	47.19615436	500.53286518	38.74968513	0.49156099	0	-0.62806301	0.25958324	320.27301825	1.44953607	0.95171309	0	-0.43981761	0	-2.15100516	0	0	-1.29868198	0
41.99000000	44.78546769	476.69269825	34.80424356	0.48589690	0	-0.62809527	-12.40566247	371.19334458	-2.00937733	0.93950396	0	-0.43407497	0	-1.67370130	0	0	-1.52841468	-0.00000000
42	41.96921475	452.60181150	30.61311241	0.48054714	0	-0.62810880	-31.82160013	403.97572609	-6.06461263	0.92833940	0	-0.42715785	0	-1.12718335	0	0	-1.71735737	0
